<mxfile host="app.diagrams.net" modified="2020-11-17T05:56:08.183Z" agent="5.0 (Windows NT 10.0; Win64; x64) AppleWebKit/537.36 (KHTML, like Gecko) Chrome/85.0.4183.102 Safari/537.36" etag="aSgRD8o7ES2OH2YK9M8D" version="13.9.9" type="github">
  <diagram id="yOSYGtA0fSvTQV13mnuz" name="Page-1">
    <mxGraphModel dx="2249" dy="1922" grid="1" gridSize="10" guides="1" tooltips="1" connect="1" arrows="1" fold="1" page="1" pageScale="1" pageWidth="827" pageHeight="1169" math="0" shadow="0">
      <root>
        <mxCell id="0" />
        <mxCell id="1" parent="0" />
        <mxCell id="MZJ1_9gj_YHTVWKWOy7u-9" style="edgeStyle=orthogonalEdgeStyle;rounded=0;orthogonalLoop=1;jettySize=auto;html=1;" edge="1" parent="1" source="MZJ1_9gj_YHTVWKWOy7u-2">
          <mxGeometry relative="1" as="geometry">
            <mxPoint x="414" y="140" as="targetPoint" />
          </mxGeometry>
        </mxCell>
        <mxCell id="MZJ1_9gj_YHTVWKWOy7u-2" value="开始" style="strokeWidth=2;html=1;shape=mxgraph.flowchart.start_2;whiteSpace=wrap;" vertex="1" parent="1">
          <mxGeometry x="384" y="40" width="60" height="60" as="geometry" />
        </mxCell>
        <mxCell id="MZJ1_9gj_YHTVWKWOy7u-10" style="edgeStyle=orthogonalEdgeStyle;rounded=0;orthogonalLoop=1;jettySize=auto;html=1;" edge="1" parent="1" source="MZJ1_9gj_YHTVWKWOy7u-4">
          <mxGeometry relative="1" as="geometry">
            <mxPoint x="414" y="320" as="targetPoint" />
          </mxGeometry>
        </mxCell>
        <mxCell id="MZJ1_9gj_YHTVWKWOy7u-22" style="edgeStyle=orthogonalEdgeStyle;rounded=0;orthogonalLoop=1;jettySize=auto;html=1;" edge="1" parent="1" source="MZJ1_9gj_YHTVWKWOy7u-4">
          <mxGeometry relative="1" as="geometry">
            <mxPoint x="280" y="200" as="targetPoint" />
          </mxGeometry>
        </mxCell>
        <mxCell id="MZJ1_9gj_YHTVWKWOy7u-4" value="是否全为图片？" style="strokeWidth=2;html=1;shape=mxgraph.flowchart.decision;whiteSpace=wrap;" vertex="1" parent="1">
          <mxGeometry x="364" y="150" width="100" height="100" as="geometry" />
        </mxCell>
        <mxCell id="MZJ1_9gj_YHTVWKWOy7u-63" style="edgeStyle=orthogonalEdgeStyle;rounded=0;orthogonalLoop=1;jettySize=auto;html=1;" edge="1" parent="1" source="MZJ1_9gj_YHTVWKWOy7u-7">
          <mxGeometry relative="1" as="geometry">
            <mxPoint x="660" y="940" as="targetPoint" />
            <Array as="points">
              <mxPoint x="10" y="200" />
              <mxPoint x="10" y="900" />
              <mxPoint x="660" y="900" />
            </Array>
          </mxGeometry>
        </mxCell>
        <mxCell id="MZJ1_9gj_YHTVWKWOy7u-7" value="提示，“无法同步视频”" style="strokeWidth=2;html=1;shape=mxgraph.flowchart.display;whiteSpace=wrap;" vertex="1" parent="1">
          <mxGeometry x="170" y="170" width="100" height="60" as="geometry" />
        </mxCell>
        <mxCell id="MZJ1_9gj_YHTVWKWOy7u-13" style="edgeStyle=orthogonalEdgeStyle;rounded=0;orthogonalLoop=1;jettySize=auto;html=1;" edge="1" parent="1" source="MZJ1_9gj_YHTVWKWOy7u-11">
          <mxGeometry relative="1" as="geometry">
            <mxPoint x="414" y="550" as="targetPoint" />
          </mxGeometry>
        </mxCell>
        <mxCell id="MZJ1_9gj_YHTVWKWOy7u-19" style="edgeStyle=orthogonalEdgeStyle;rounded=0;orthogonalLoop=1;jettySize=auto;html=1;" edge="1" parent="1" source="MZJ1_9gj_YHTVWKWOy7u-11">
          <mxGeometry relative="1" as="geometry">
            <mxPoint x="280" y="380" as="targetPoint" />
          </mxGeometry>
        </mxCell>
        <mxCell id="MZJ1_9gj_YHTVWKWOy7u-11" value="是否首次同步？" style="strokeWidth=2;html=1;shape=mxgraph.flowchart.decision;whiteSpace=wrap;" vertex="1" parent="1">
          <mxGeometry x="364" y="330" width="100" height="100" as="geometry" />
        </mxCell>
        <mxCell id="MZJ1_9gj_YHTVWKWOy7u-12" value="是" style="text;html=1;align=center;verticalAlign=middle;resizable=0;points=[];autosize=1;" vertex="1" parent="1">
          <mxGeometry x="399" y="270" width="30" height="20" as="geometry" />
        </mxCell>
        <mxCell id="MZJ1_9gj_YHTVWKWOy7u-32" style="edgeStyle=orthogonalEdgeStyle;rounded=0;orthogonalLoop=1;jettySize=auto;html=1;" edge="1" parent="1" source="MZJ1_9gj_YHTVWKWOy7u-18">
          <mxGeometry relative="1" as="geometry">
            <mxPoint x="90" y="380" as="targetPoint" />
          </mxGeometry>
        </mxCell>
        <mxCell id="MZJ1_9gj_YHTVWKWOy7u-62" style="edgeStyle=orthogonalEdgeStyle;rounded=0;orthogonalLoop=1;jettySize=auto;html=1;entryX=0.5;entryY=0;entryDx=0;entryDy=0;" edge="1" parent="1" source="MZJ1_9gj_YHTVWKWOy7u-18" target="MZJ1_9gj_YHTVWKWOy7u-27">
          <mxGeometry relative="1" as="geometry">
            <Array as="points">
              <mxPoint x="220" y="510" />
              <mxPoint x="414" y="510" />
            </Array>
          </mxGeometry>
        </mxCell>
        <mxCell id="MZJ1_9gj_YHTVWKWOy7u-18" value="是否继续同步已同步过的SKU？" style="strokeWidth=2;html=1;shape=mxgraph.flowchart.decision;whiteSpace=wrap;" vertex="1" parent="1">
          <mxGeometry x="170" y="330" width="100" height="100" as="geometry" />
        </mxCell>
        <mxCell id="MZJ1_9gj_YHTVWKWOy7u-23" value="否" style="text;html=1;align=center;verticalAlign=middle;resizable=0;points=[];autosize=1;" vertex="1" parent="1">
          <mxGeometry x="305" y="180" width="30" height="20" as="geometry" />
        </mxCell>
        <mxCell id="MZJ1_9gj_YHTVWKWOy7u-24" value="是" style="text;html=1;align=center;verticalAlign=middle;resizable=0;points=[];autosize=1;" vertex="1" parent="1">
          <mxGeometry x="398" y="450" width="30" height="20" as="geometry" />
        </mxCell>
        <mxCell id="MZJ1_9gj_YHTVWKWOy7u-25" value="否" style="text;html=1;align=center;verticalAlign=middle;resizable=0;points=[];autosize=1;" vertex="1" parent="1">
          <mxGeometry x="305" y="360" width="30" height="20" as="geometry" />
        </mxCell>
        <mxCell id="MZJ1_9gj_YHTVWKWOy7u-43" style="edgeStyle=orthogonalEdgeStyle;rounded=0;orthogonalLoop=1;jettySize=auto;html=1;" edge="1" parent="1" source="MZJ1_9gj_YHTVWKWOy7u-27">
          <mxGeometry relative="1" as="geometry">
            <mxPoint x="610" y="575" as="targetPoint" />
          </mxGeometry>
        </mxCell>
        <mxCell id="MZJ1_9gj_YHTVWKWOy7u-31" value="是（同步）" style="text;html=1;align=center;verticalAlign=middle;resizable=0;points=[];autosize=1;" vertex="1" parent="1">
          <mxGeometry x="179" y="452" width="80" height="20" as="geometry" />
        </mxCell>
        <mxCell id="MZJ1_9gj_YHTVWKWOy7u-33" value="否（不同步）" style="text;html=1;align=center;verticalAlign=middle;resizable=0;points=[];autosize=1;" vertex="1" parent="1">
          <mxGeometry x="85" y="360" width="90" height="20" as="geometry" />
        </mxCell>
        <mxCell id="MZJ1_9gj_YHTVWKWOy7u-61" style="edgeStyle=orthogonalEdgeStyle;rounded=0;orthogonalLoop=1;jettySize=auto;html=1;entryX=0.5;entryY=0;entryDx=0;entryDy=0;" edge="1" parent="1" source="MZJ1_9gj_YHTVWKWOy7u-34" target="MZJ1_9gj_YHTVWKWOy7u-27">
          <mxGeometry relative="1" as="geometry">
            <Array as="points">
              <mxPoint x="35" y="510" />
              <mxPoint x="414" y="510" />
            </Array>
          </mxGeometry>
        </mxCell>
        <mxCell id="MZJ1_9gj_YHTVWKWOy7u-34" value="过滤已同步sku" style="rounded=1;whiteSpace=wrap;html=1;absoluteArcSize=1;arcSize=14;strokeWidth=2;" vertex="1" parent="1">
          <mxGeometry x="-15" y="355" width="100" height="50" as="geometry" />
        </mxCell>
        <mxCell id="MZJ1_9gj_YHTVWKWOy7u-38" value="Pool" style="swimlane;html=1;childLayout=stackLayout;resizeParent=1;resizeParentMax=0;startSize=20;" vertex="1" parent="1">
          <mxGeometry x="-20" y="-10" width="1010" height="1050" as="geometry" />
        </mxCell>
        <mxCell id="MZJ1_9gj_YHTVWKWOy7u-39" value="MMS" style="swimlane;html=1;startSize=20;" vertex="1" parent="MZJ1_9gj_YHTVWKWOy7u-38">
          <mxGeometry y="20" width="520" height="1030" as="geometry" />
        </mxCell>
        <mxCell id="MZJ1_9gj_YHTVWKWOy7u-28" value="CMS接口：&lt;span style=&quot;color: rgb(51 , 51 , 51) ; font-family: &amp;#34;arial&amp;#34; , sans-serif ; font-size: 14px ; background-color: rgb(255 , 255 , 255)&quot;&gt;spi/sync/influencer/data，&lt;br&gt;数据写入：patpat.oms_influencer_data表中&lt;br&gt;&lt;/span&gt;" style="strokeWidth=2;html=1;shape=mxgraph.flowchart.annotation_1;align=left;pointerEvents=1;" vertex="1" parent="MZJ1_9gj_YHTVWKWOy7u-39">
          <mxGeometry x="140" y="670" width="90" height="100" as="geometry" />
        </mxCell>
        <mxCell id="MZJ1_9gj_YHTVWKWOy7u-27" value="调用CMS同步接口" style="rounded=1;whiteSpace=wrap;html=1;absoluteArcSize=1;arcSize=14;strokeWidth=2;" vertex="1" parent="MZJ1_9gj_YHTVWKWOy7u-39">
          <mxGeometry x="384" y="540" width="100" height="50" as="geometry" />
        </mxCell>
        <mxCell id="MZJ1_9gj_YHTVWKWOy7u-40" value="CMS" style="swimlane;html=1;startSize=20;" vertex="1" parent="MZJ1_9gj_YHTVWKWOy7u-38">
          <mxGeometry x="520" y="20" width="490" height="1030" as="geometry" />
        </mxCell>
        <mxCell id="MZJ1_9gj_YHTVWKWOy7u-45" value="是否首次同步？" style="strokeWidth=2;html=1;shape=mxgraph.flowchart.decision;whiteSpace=wrap;" vertex="1" parent="MZJ1_9gj_YHTVWKWOy7u-40">
          <mxGeometry x="110" y="515" width="100" height="100" as="geometry" />
        </mxCell>
        <mxCell id="MZJ1_9gj_YHTVWKWOy7u-47" value="&lt;span style=&quot;color: rgb(51 , 51 , 51) ; font-family: &amp;#34;arial&amp;#34; , sans-serif ; font-size: 14px ; background-color: rgb(255 , 255 , 255)&quot;&gt;根据id 和 category做唯一性验证&lt;br&gt;&lt;/span&gt;" style="strokeWidth=2;html=1;shape=mxgraph.flowchart.annotation_1;align=left;pointerEvents=1;" vertex="1" parent="MZJ1_9gj_YHTVWKWOy7u-40">
          <mxGeometry x="237" y="380" width="90" height="100" as="geometry" />
        </mxCell>
        <mxCell id="MZJ1_9gj_YHTVWKWOy7u-50" value="插入数据" style="rounded=1;whiteSpace=wrap;html=1;absoluteArcSize=1;arcSize=14;strokeWidth=2;" vertex="1" parent="MZJ1_9gj_YHTVWKWOy7u-40">
          <mxGeometry x="110" y="680" width="100" height="50" as="geometry" />
        </mxCell>
        <mxCell id="MZJ1_9gj_YHTVWKWOy7u-69" style="edgeStyle=orthogonalEdgeStyle;rounded=0;orthogonalLoop=1;jettySize=auto;html=1;entryX=1;entryY=0.5;entryDx=0;entryDy=0;" edge="1" parent="MZJ1_9gj_YHTVWKWOy7u-40" source="MZJ1_9gj_YHTVWKWOy7u-54" target="MZJ1_9gj_YHTVWKWOy7u-68">
          <mxGeometry relative="1" as="geometry">
            <Array as="points">
              <mxPoint x="330" y="810" />
            </Array>
          </mxGeometry>
        </mxCell>
        <mxCell id="MZJ1_9gj_YHTVWKWOy7u-54" value="更新数据" style="rounded=1;whiteSpace=wrap;html=1;absoluteArcSize=1;arcSize=14;strokeWidth=2;" vertex="1" parent="MZJ1_9gj_YHTVWKWOy7u-40">
          <mxGeometry x="280" y="540" width="100" height="50" as="geometry" />
        </mxCell>
        <mxCell id="MZJ1_9gj_YHTVWKWOy7u-3" value="结束" style="strokeWidth=2;html=1;shape=mxgraph.flowchart.terminator;whiteSpace=wrap;" vertex="1" parent="MZJ1_9gj_YHTVWKWOy7u-40">
          <mxGeometry x="110" y="940" width="100" height="40" as="geometry" />
        </mxCell>
        <mxCell id="MZJ1_9gj_YHTVWKWOy7u-68" value="审核流程" style="verticalLabelPosition=bottom;verticalAlign=top;html=1;shape=process;whiteSpace=wrap;rounded=1;size=0.14;arcSize=6;" vertex="1" parent="MZJ1_9gj_YHTVWKWOy7u-40">
          <mxGeometry x="110" y="780" width="100" height="60" as="geometry" />
        </mxCell>
        <mxCell id="MZJ1_9gj_YHTVWKWOy7u-49" style="edgeStyle=orthogonalEdgeStyle;rounded=0;orthogonalLoop=1;jettySize=auto;html=1;" edge="1" parent="1" source="MZJ1_9gj_YHTVWKWOy7u-45">
          <mxGeometry relative="1" as="geometry">
            <mxPoint x="660" y="680" as="targetPoint" />
          </mxGeometry>
        </mxCell>
        <mxCell id="MZJ1_9gj_YHTVWKWOy7u-51" value="是" style="text;html=1;align=center;verticalAlign=middle;resizable=0;points=[];autosize=1;" vertex="1" parent="1">
          <mxGeometry x="665" y="640" width="30" height="20" as="geometry" />
        </mxCell>
        <mxCell id="MZJ1_9gj_YHTVWKWOy7u-52" style="edgeStyle=orthogonalEdgeStyle;rounded=0;orthogonalLoop=1;jettySize=auto;html=1;" edge="1" parent="1" source="MZJ1_9gj_YHTVWKWOy7u-45">
          <mxGeometry relative="1" as="geometry">
            <mxPoint x="770" y="575" as="targetPoint" />
          </mxGeometry>
        </mxCell>
        <mxCell id="MZJ1_9gj_YHTVWKWOy7u-53" value="否" style="text;html=1;align=center;verticalAlign=middle;resizable=0;points=[];autosize=1;" vertex="1" parent="1">
          <mxGeometry x="735" y="550" width="30" height="20" as="geometry" />
        </mxCell>
        <mxCell id="MZJ1_9gj_YHTVWKWOy7u-64" style="edgeStyle=orthogonalEdgeStyle;rounded=0;orthogonalLoop=1;jettySize=auto;html=1;" edge="1" parent="1">
          <mxGeometry relative="1" as="geometry">
            <mxPoint x="660" y="940" as="targetPoint" />
            <mxPoint x="660" y="870" as="sourcePoint" />
          </mxGeometry>
        </mxCell>
        <mxCell id="MZJ1_9gj_YHTVWKWOy7u-67" style="edgeStyle=orthogonalEdgeStyle;rounded=0;orthogonalLoop=1;jettySize=auto;html=1;" edge="1" parent="1" source="MZJ1_9gj_YHTVWKWOy7u-50">
          <mxGeometry relative="1" as="geometry">
            <mxPoint x="660" y="780" as="targetPoint" />
          </mxGeometry>
        </mxCell>
      </root>
    </mxGraphModel>
  </diagram>
</mxfile>
